<?xml version="1.0" encoding="UTF-8" standalone="no"?>
<!-- Created with Inkscape (http://www.inkscape.org/) -->

<svg
   width="66.961021mm"
   height="11.452036mm"
   viewBox="0 0 66.96102 11.452036"
   version="1.1"
   id="svg1"
   inkscape:version="1.3 (0e150ed6c4, 2023-07-21)"
   sodipodi:docname="taskman-light.svg"
   xmlns:inkscape="http://www.inkscape.org/namespaces/inkscape"
   xmlns:sodipodi="http://sodipodi.sourceforge.net/DTD/sodipodi-0.dtd"
   xmlns="http://www.w3.org/2000/svg"
   xmlns:svg="http://www.w3.org/2000/svg">
  <sodipodi:namedview
     id="namedview1"
     pagecolor="#888888"
     bordercolor="#000000"
     borderopacity="0"
     inkscape:showpageshadow="2"
     inkscape:pageopacity="0.0"
     inkscape:pagecheckerboard="0"
     inkscape:deskcolor="#b3b3b3"
     inkscape:document-units="mm"
     inkscape:zoom="1.5765702"
     inkscape:cx="98.314684"
     inkscape:cy="24.737243"
     inkscape:window-width="1465"
     inkscape:window-height="991"
     inkscape:window-x="26"
     inkscape:window-y="23"
     inkscape:window-maximized="0"
     inkscape:current-layer="layer1" />
  <defs
     id="defs1" />
  <g
     inkscape:label="Layer 1"
     inkscape:groupmode="layer"
     id="layer1"
     transform="translate(-6.0854313,-57.679166)">
    <path
       id="path1"
       style="fill:#25c28e;fill-opacity:1;stroke-width:0.0261469"
       d="m 13.717484,58.766374 a 1.9039347,1.5745962 0 0 0 -1.903933,1.574593 1.9039347,1.5745962 0 0 0 1.903933,1.574585 1.9039347,1.5745962 0 0 0 1.903988,-1.574585 1.9039347,1.5745962 0 0 0 -1.903988,-1.574593 z m -2.840287,3.420308 c -0.452046,-3.67e-4 -0.816256,0.285866 -0.816647,0.641724 -3.94e-4,0.35586 0.363207,0.642631 0.815254,0.64297 l 2.007915,0.0016 v 1.120955 0.57657 l -0.01896,-0.01531 -2.106826,1.779741 c -0.316263,0.26713 -0.323299,0.682579 -0.01584,0.931532 0.307466,0.248949 0.809563,0.234314 1.125811,-0.03283 l 1.7927,-1.514325 1.796659,1.514558 c 0.316565,0.266885 0.818767,0.281075 1.125922,0.03186 0.307183,-0.249191 0.299573,-0.664661 -0.017,-0.931533 l -2.110113,-1.778819 -0.01896,0.0154 v -1.237893 -0.458433 l 2.006465,0.0016 c 0.452045,3.28e-4 0.816308,-0.285911 0.816699,-0.641771 4.2e-4,-0.355858 -0.363261,-0.642584 -0.815305,-0.642922 l -2.556213,-0.0019 v -3.62e-4 z" />
    <text
       xml:space="preserve"
       style="font-style:normal;font-variant:normal;font-weight:normal;font-stretch:normal;font-size:10.4562px;font-family:Poppins;-inkscape-font-specification:'Poppins, Normal';font-variant-ligatures:normal;font-variant-caps:normal;font-variant-numeric:normal;font-variant-east-asian:normal;fill:#ffffff;stroke-width:0.871338"
       x="18.232201"
       y="76.068596"
       id="text1"
       transform="scale(1.1452116,0.87320108)"><tspan
         sodipodi:role="line"
         id="tspan1"
         style="font-style:normal;font-variant:normal;font-weight:normal;font-stretch:normal;font-size:9.4562px;font-family:Poppins;-inkscape-font-specification:'Poppins, Normal';font-variant-ligatures:normal;font-variant-caps:normal;font-variant-numeric:normal;font-variant-east-asian:normal;fill:#ffffff;stroke-width:0.871338"
         x="18.232201"
         y="76.068596">Taskman</tspan></text>
  </g>
</svg>
