<?xml version="1.0" encoding="UTF-8" standalone="no"?>
<!-- Created with Inkscape (http://www.inkscape.org/) -->

<svg
   width="242.65318mm"
   height="136.99062mm"
   viewBox="0 0 242.65318 136.99062"
   version="1.1"
   id="svg1"
   inkscape:version="1.3 (0e150ed6c4, 2023-07-21)"
   sodipodi:docname="undraw-progress.svg"
   xmlns:inkscape="http://www.inkscape.org/namespaces/inkscape"
   xmlns:sodipodi="http://sodipodi.sourceforge.net/DTD/sodipodi-0.dtd"
   xmlns="http://www.w3.org/2000/svg"
   xmlns:svg="http://www.w3.org/2000/svg">
  <sodipodi:namedview
     id="namedview1"
     pagecolor="#ffffff"
     bordercolor="#000000"
     borderopacity="0.25"
     inkscape:showpageshadow="2"
     inkscape:pageopacity="0.0"
     inkscape:pagecheckerboard="0"
     inkscape:deskcolor="#d1d1d1"
     inkscape:document-units="mm"
     inkscape:zoom="0.71090067"
     inkscape:cx="386.12989"
     inkscape:cy="153.32662"
     inkscape:window-width="1888"
     inkscape:window-height="979"
     inkscape:window-x="26"
     inkscape:window-y="23"
     inkscape:window-maximized="0"
     inkscape:current-layer="layer1" />
  <defs
     id="defs1" />
  <g
     inkscape:label="Layer 1"
     inkscape:groupmode="layer"
     id="layer1"
     transform="translate(-32.543741,-31.485441)">
    <path
       d="m 70.790637,93.685367 a 18.25625,18.25625 0 0 1 0,-36.512499 H 236.94886 a 18.25625,18.25625 0 0 1 0,36.512499 z"
       fill="#e6e6e6"
       id="path1"
       style="stroke-width:0.264583" />
    <path
       d="m 70.790637,59.554118 a 15.875,15.875 0 0 0 0,31.749999 H 236.94886 a 15.875,15.875 0 0 0 0,-31.749999 z"
       fill="#ffffff"
       id="path2"
       style="stroke-width:0.264583" />
    <rect
       x="87.635864"
       y="59.554173"
       width="0.52916664"
       height="31.75"
       fill="#e6e6e6"
       id="rect2"
       style="stroke-width:0.264583" />
    <rect
       x="120.66477"
       y="59.554173"
       width="0.52916664"
       height="31.75"
       fill="#e6e6e6"
       id="rect3"
       style="stroke-width:0.264583" />
    <rect
       x="153.73775"
       y="59.554173"
       width="0.52916664"
       height="31.75"
       fill="#e6e6e6"
       id="rect4"
       style="stroke-width:0.264583" />
    <rect
       x="186.54608"
       y="59.554173"
       width="0.52916664"
       height="31.75"
       fill="#e6e6e6"
       id="rect5"
       style="stroke-width:0.264583" />
    <rect
       x="219.61899"
       y="59.554173"
       width="0.52916664"
       height="31.75"
       fill="#e6e6e6"
       id="rect6"
       style="stroke-width:0.264583" />
    <path
       d="m 96.766671,70.666618 a 0.76613278,0.76613278 0 1 0 0,1.532263 h 15.541489 a 0.76613297,0.76613297 0 0 0 0.003,-1.532263 z"
       fill="#e6e6e6"
       id="path6"
       style="stroke-width:0.264583" />
    <path
       d="m 96.766671,74.635368 a 0.76613278,0.76613278 0 1 0 0,1.532262 h 15.541489 a 0.76613292,0.76613292 0 0 0 0.003,-1.532262 z"
       fill="#e6e6e6"
       id="path7"
       style="stroke-width:0.264583" />
    <path
       d="m 96.766671,78.604118 a 0.76613278,0.76613278 0 1 0 0,1.532262 h 15.541489 a 0.76613292,0.76613292 0 0 0 0.003,-1.532262 z"
       fill="#e6e6e6"
       id="path8"
       style="stroke-width:0.264583" />
    <path
       d="m 129.57498,70.666618 a 0.76613278,0.76613278 0 1 0 0,1.532263 h 15.54151 a 0.76613278,0.76613278 0 1 0 0,-1.532263 z"
       fill="#60b74c"
       id="path9"
       style="fill:#25c28e;fill-opacity:1;stroke-width:0.264583" />
    <path
       d="m 129.57498,74.635368 a 0.76613278,0.76613278 0 1 0 0,1.532262 h 15.54151 a 0.76613278,0.76613278 0 1 0 0,-1.532262 z"
       fill="#60b74c"
       id="path10"
       style="fill:#25c28e;fill-opacity:1;stroke-width:0.264583" />
    <path
       d="m 129.57498,78.604118 a 0.76613278,0.76613278 0 1 0 0,1.532262 h 15.54151 a 0.76613278,0.76613278 0 1 0 0,-1.532262 z"
       fill="#60b74c"
       id="path11"
       style="fill:#25c28e;fill-opacity:1;stroke-width:0.264583" />
    <path
       d="m 162.6479,70.666618 a 0.76613278,0.76613278 0 0 0 0,1.532263 h 15.54151 a 0.76613278,0.76613278 0 1 0 0,-1.532263 z"
       fill="#e6e6e6"
       id="path12"
       style="stroke-width:0.264583" />
    <path
       d="m 162.6479,74.635368 a 0.76613278,0.76613278 0 0 0 0,1.532262 h 15.54151 a 0.76613278,0.76613278 0 1 0 0,-1.532262 z"
       fill="#e6e6e6"
       id="path13"
       style="stroke-width:0.264583" />
    <path
       d="m 162.6479,78.604118 a 0.76613278,0.76613278 0 0 0 0,1.532262 h 15.54151 a 0.76613278,0.76613278 0 1 0 0,-1.532262 z"
       fill="#e6e6e6"
       id="path14"
       style="stroke-width:0.264583" />
    <path
       d="m 195.58852,70.666618 a 0.76613278,0.76613278 0 0 0 0,1.532263 h 15.54151 a 0.76613278,0.76613278 0 1 0 0,-1.532263 z"
       fill="#e6e6e6"
       id="path15"
       style="stroke-width:0.264583" />
    <path
       d="m 195.58852,74.635368 a 0.76613278,0.76613278 0 0 0 0,1.532262 h 15.54151 a 0.76613278,0.76613278 0 1 0 0,-1.532262 z"
       fill="#e6e6e6"
       id="path16"
       style="stroke-width:0.264583" />
    <path
       d="m 195.58852,78.604118 a 0.76613278,0.76613278 0 0 0 0,1.532262 h 15.54151 a 0.76613278,0.76613278 0 1 0 0,-1.532262 z"
       fill="#e6e6e6"
       id="path17"
       style="stroke-width:0.264583" />
    <path
       d="m 227.7354,70.666618 a 0.76613278,0.76613278 0 0 0 0,1.532263 h 15.54151 a 0.76613278,0.76613278 0 1 0 0,-1.532263 z"
       fill="#e6e6e6"
       id="path18"
       style="stroke-width:0.264583" />
    <path
       d="m 227.7354,74.635368 a 0.76613278,0.76613278 0 0 0 0,1.532262 h 15.54151 a 0.76613278,0.76613278 0 1 0 0,-1.532262 z"
       fill="#e6e6e6"
       id="path19"
       style="stroke-width:0.264583" />
    <path
       d="m 227.7354,78.604118 a 0.76613278,0.76613278 0 0 0 0,1.532262 h 15.54151 a 0.76613278,0.76613278 0 1 0 0,-1.532262 z"
       fill="#e6e6e6"
       id="path20"
       style="stroke-width:0.264583" />
    <path
       d="m 63.693841,70.666618 a 0.76613278,0.76613278 0 0 0 0,1.532263 h 15.541511 a 0.76613297,0.76613297 0 0 0 0.003,-1.532263 z"
       fill="#e6e6e6"
       id="path21"
       style="stroke-width:0.264583" />
    <path
       d="m 63.693841,74.635368 a 0.76613278,0.76613278 0 0 0 0,1.532262 h 15.541511 a 0.76613292,0.76613292 0 0 0 0.003,-1.532262 z"
       fill="#e6e6e6"
       id="path22"
       style="stroke-width:0.264583" />
    <path
       d="m 63.693841,78.604118 a 0.76613278,0.76613278 0 0 0 0,1.532262 h 15.541511 a 0.76613292,0.76613292 0 0 0 0.003,-1.532262 z"
       fill="#e6e6e6"
       id="path23"
       style="stroke-width:0.264583" />
    <circle
       cx="137.36479"
       cy="44.021957"
       r="12.536516"
       fill="#60b74c"
       id="circle23"
       style="fill:#25c28e;fill-opacity:1;stroke-width:0.264583" />
    <polygon
       points="396.173,73.086 425.803,73.086 410.988,98.747 396.173,124.408 381.357,98.747 366.542,73.086 "
       fill="#60b74c"
       id="polygon23"
       style="fill:#25c28e;fill-opacity:1"
       transform="matrix(0.26458333,0,0,0.26458333,32.543741,31.485428)" />
    <circle
       cx="137.46591"
       cy="43.943703"
       r="4.4979167"
       fill="#ffffff"
       id="circle24"
       style="stroke-width:0.264583" />
    <path
       d="m 267.27345,78.007133 a 0.4017301,0.4017301 0 0 1 -0.28422,-0.117774 l -2.1708,-2.17079 a 0.40195803,0.40195803 0 1 1 0.56846,-0.568449 l 1.83949,1.839462 3.26048,-4.446174 a 0.40202114,0.40202114 0 0 1 0.64837,0.475488 l -3.53756,4.823986 a 0.40234658,0.40234658 0 0 1 -0.29356,0.163153 c -0.0103,7.94e-4 -0.0206,0.0011 -0.0307,0.0011 z"
       fill="#60b74c"
       id="path24"
       style="fill:#25c28e;fill-opacity:1;stroke-width:0.264583" />
    <path
       d="m 37.942061,77.945739 a 0.40199997,0.40199997 0 0 1 -0.284223,-0.686223 l 4.284586,-4.284427 a 0.40195499,0.40195499 0 0 1 0.568452,0.568446 l -4.284596,4.28443 a 0.40069822,0.40069822 0 0 1 -0.284219,0.117774 z"
       fill="#60b74c"
       id="path25"
       style="fill:#25c28e;fill-opacity:1;stroke-width:0.264583" />
    <path
       d="m 42.226592,77.945734 a 0.40068764,0.40068764 0 0 1 -0.284224,-0.117772 l -4.284429,-4.284429 a 0.40195626,0.40195626 0 0 1 0.568454,-0.56845 l 4.284419,4.284438 a 0.40200262,0.40200262 0 0 1 -0.284223,0.686223 z"
       fill="#60b74c"
       id="path26"
       style="fill:#25c28e;fill-opacity:1;stroke-width:0.264583" />
    <path
       d="m 188.10631,120.66489 a 2.8423367,2.8423367 0 0 1 -0.84309,-4.27609 l -3.67493,-25.62602 6.17888,0.170148 1.66941,25.136032 a 2.8577381,2.8577381 0 0 1 -3.33027,4.59592 z"
       fill="#a0616a"
       id="path27"
       style="stroke-width:0.264583" />
    <path
       d="m 182.783,94.943474 a 1.2731009,1.2731009 0 0 1 -0.45771,-0.957439 l -0.10368,-6.395652 a 3.5394291,3.5394291 0 0 1 6.98099,-1.172898 l 1.96132,6.110166 a 1.2744662,1.2744662 0 0 1 -1.00601,1.646894 l -6.35086,1.047893 A 1.2730348,1.2730348 0 0 1 182.783,94.943474 Z"
       fill="#60b74c"
       id="path28"
       style="fill:#25c28e;fill-opacity:1;stroke-width:0.264583" />
    <polygon
       points="511.095,504.84 505.262,457.552 523.357,457.552 523.354,504.84 "
       fill="#a0616a"
       id="polygon28"
       transform="matrix(0.26458333,0,0,0.26458333,32.543741,31.485428)" />
    <path
       d="m 171.8417,168.20222 -10.45912,-2.7e-4 v -0.13229 a 4.0708923,4.0708923 0 0 1 4.071,-4.07094 h 2.7e-4 l 6.38804,2.7e-4 z"
       fill="#2f2e41"
       id="path29"
       style="stroke-width:0.264583" />
    <polygon
       points="580.095,504.84 574.262,457.552 592.357,457.552 592.354,504.84 "
       fill="#a0616a"
       id="polygon29"
       transform="matrix(0.26458333,0,0,0.26458333,32.543741,31.485428)" />
    <path
       d="m 190.09795,168.20222 -10.45912,-2.7e-4 v -0.13229 a 4.0708923,4.0708923 0 0 1 4.071,-4.07094 h 2.7e-4 l 6.38804,2.7e-4 z"
       fill="#2f2e41"
       id="path30"
       style="stroke-width:0.264583" />
    <path
       d="m 184.70195,159.06143 -5.67336,-29.89792 a 0.38483381,0.38483381 0 0 0 -0.38796,-0.3204 h -0.002 a 0.38463802,0.38463802 0 0 0 -0.38868,0.31729 l -5.89763,29.83876 a 1.1912203,1.1912203 0 0 1 -1.26129,0.94773 l -4.6107,-0.36871 a 1.1906832,1.1906832 0 0 1 -1.09031,-1.2994 l 3.87889,-41.91613 19.82237,0.51678 0.12287,0.003 1.94981,41.89208 a 1.1907361,1.1907361 0 0 1 -1.18927,1.24721 h -4.10492 a 1.1931438,1.1931438 0 0 1 -1.1682,-0.96065 z"
       fill="#2f2e41"
       id="path31"
       style="stroke-width:0.264583" />
    <circle
       cx="178.35115"
       cy="73.021935"
       r="6.4984388"
       fill="#a0616a"
       id="circle31"
       style="stroke-width:0.264583" />
    <path
       d="m 168.81978,118.69638 a 1.188675,1.188675 0 0 1 -0.63892,-1.2268 c 0.84013,-6.00303 0.30509,-16.61795 -0.29177,-24.465531 -0.40902,-5.378225 3.20581,-10.193176 8.40845,-11.200093 0.081,-0.0155 0.16188,-0.03075 0.24282,-0.04522 h 6e-5 a 10.477024,10.477024 0 0 1 8.98582,2.601913 10.588508,10.588508 0 0 1 3.42783,8.811866 c -0.77114,8.747795 0.59815,21.843455 0.88044,24.379745 a 1.2043542,1.2043542 0 0 1 -0.3888,1.01855 c -2.63731,2.4071 -5.81864,3.22127 -8.91593,3.22127 -5.00912,0 -9.79842,-2.12986 -11.71,-3.0957 z"
       fill="#60b74c"
       id="path32"
       style="fill:#25c28e;fill-opacity:1;stroke-width:0.264583" />
    <path
       d="m 163.98827,120.73624 a 2.8423393,2.8423393 0 0 0 1.2986,-4.16045 l 6.41275,-25.081374 -6.16128,-0.496131 -4.36614,24.810155 a 2.8577407,2.8577407 0 0 0 2.81607,4.92779 z"
       fill="#a0616a"
       id="path33"
       style="stroke-width:0.264583" />
    <path
       d="m 171.00196,95.904616 -6.20111,-1.725613 a 1.2744662,1.2744662 0 0 1 -0.82284,-1.745639 l 2.60781,-5.863465 a 3.5394291,3.5394291 0 0 1 6.81412,1.917726 l -0.79172,6.347307 a 1.2744662,1.2744662 0 0 1 -1.60626,1.069681 z"
       fill="#60b74c"
       id="path34"
       style="fill:#25c28e;fill-opacity:1;stroke-width:0.264583" />
    <path
       d="m 180.61934,79.428604 a 4.6561507,4.6561507 0 0 0 1.79843,-0.325384 c 0.25172,-0.09701 0.51303,-0.176742 0.76428,-0.273815 2.21896,-0.857295 3.68067,-3.220477 3.73302,-5.59871 0.0524,-2.378234 -1.17924,-4.68653 -3.00807,-6.207755 -1.82884,-1.521224 -4.19762,-2.302229 -6.56957,-2.482834 -2.55498,-0.19454 -5.43197,0.45339 -6.85966,2.581169 -0.38003,0.56638 -0.64581,1.253551 -0.42062,1.937401 a 1.2396946,1.2396946 0 0 0 0.34932,0.536575 c 0.63759,0.567251 1.27323,0.140734 1.9232,0.10305 0.89338,-0.05179 1.69578,0.671338 1.98418,1.518465 0.28839,0.847127 0.16145,1.779746 -0.0714,2.64379 a 6.604545,6.604545 0 0 0 -0.33292,1.60758 1.6161623,1.6161623 0 0 0 0.66965,1.423072 c 0.55824,0.337439 1.29137,0.142144 1.84995,-0.194755 0.55857,-0.336899 1.04122,-0.805317 1.64459,-1.053229 0.60336,-0.247912 1.41398,-0.192924 1.76516,0.356785 a 1.9523604,1.9523604 0 0 1 0.22317,0.644319 c 0.31483,1.434372 0.24247,1.349904 0.5573,2.784268 z"
       fill="#2f2e41"
       id="path35"
       style="stroke-width:0.264583" />
    <path
       d="M 206.11777,168.47606 H 138.9136 a 0.264585,0.264585 0 0 1 0,-0.52917 h 67.20417 a 0.264585,0.264585 0 0 1 0,0.52917 z"
       fill="#3f3d56"
       id="path36"
       style="stroke-width:0.264583" />
    <path
       d="m 40.084366,82.942173 a 7.5406249,7.5406249 0 1 1 7.540625,-7.540625 7.5492027,7.5492027 0 0 1 -7.540625,7.540625 z m 0,-14.2875 a 6.7468749,6.7468749 0 1 0 6.746875,6.746875 6.7545822,6.7545822 0 0 0 -6.746875,-6.746875 z"
       fill="#e6e6e6"
       id="path37"
       style="stroke-width:0.264583" />
    <path
       d="m 267.6563,82.898368 a 7.5406249,7.5406249 0 1 1 7.54062,-7.540624 7.5492027,7.5492027 0 0 1 -7.54062,7.540624 z m 0,-14.287499 a 6.7468749,6.7468749 0 1 0 6.74687,6.746875 6.7545822,6.7545822 0 0 0 -6.74687,-6.746875 z"
       fill="#e6e6e6"
       id="path38"
       style="stroke-width:0.264583" />
  </g>
</svg>
