<?xml version="1.0" encoding="UTF-8" standalone="no"?>
<!-- Created with Inkscape (http://www.inkscape.org/) -->

<svg
   width="297mm"
   height="210mm"
   viewBox="0 0 297 210"
   version="1.1"
   id="svg1"
   inkscape:version="1.3 (0e150ed6c4, 2023-07-21)"
   sodipodi:docname="undraw-task-complete.svg"
   xmlns:inkscape="http://www.inkscape.org/namespaces/inkscape"
   xmlns:sodipodi="http://sodipodi.sourceforge.net/DTD/sodipodi-0.dtd"
   xmlns="http://www.w3.org/2000/svg"
   xmlns:svg="http://www.w3.org/2000/svg">
  <sodipodi:namedview
     id="namedview1"
     pagecolor="#ffffff"
     bordercolor="#000000"
     borderopacity="0.25"
     inkscape:showpageshadow="2"
     inkscape:pageopacity="0.0"
     inkscape:pagecheckerboard="0"
     inkscape:deskcolor="#d1d1d1"
     inkscape:document-units="mm"
     inkscape:zoom="0.71090067"
     inkscape:cx="405.82322"
     inkscape:cy="295.39992"
     inkscape:window-width="1888"
     inkscape:window-height="979"
     inkscape:window-x="26"
     inkscape:window-y="23"
     inkscape:window-maximized="0"
     inkscape:current-layer="layer1" />
  <defs
     id="defs1" />
  <g
     inkscape:label="Layer 1"
     inkscape:groupmode="layer"
     id="layer1">
    <path
       d="m 173.46824,119.32721 h -68.26272 a 8.7411294,8.7411294 0 0 1 -8.73128,-8.7313 V 30.427098 a 8.7411294,8.7411294 0 0 1 8.73128,-8.731255 h 63.50732 l 13.48665,10.749738 v 78.150329 a 8.7411294,8.7411294 0 0 1 -8.73125,8.7313 z"
       fill="#e6e6e6"
       id="path1"
       style="stroke-width:0.264583" />
    <path
       d="m 105.20549,24.209386 a 6.2247277,6.2247277 0 0 0 -6.217734,6.217712 v 80.168812 a 6.2247277,6.2247277 0 0 0 6.217734,6.21774 h 68.26272 a 6.2247277,6.2247277 0 0 0 6.2177,-6.21774 V 33.65649 l -11.85232,-9.447104 z"
       fill="#ffffff"
       id="path2"
       style="stroke-width:0.264583" />
    <path
       d="m 160.19118,47.520315 h -31.07905 a 1.453986,1.453986 0 1 1 0,-2.907972 h 31.07905 a 1.453986,1.453986 0 1 1 0,2.907972 z"
       fill="#cccccc"
       id="path3"
       style="stroke-width:0.264583" />
    <path
       d="m 166.18887,52.427518 h -37.07674 a 1.453986,1.453986 0 1 1 0,-2.907972 h 37.07674 a 1.453986,1.453986 0 1 1 0,2.907972 z"
       fill="#cccccc"
       id="path4"
       style="stroke-width:0.264583" />
    <path
       d="m 160.19118,69.51186 h -31.07905 a 1.453986,1.453986 0 1 1 0,-2.907972 h 31.07905 a 1.453986,1.453986 0 1 1 0,2.907972 z"
       fill="#cccccc"
       id="path5"
       style="stroke-width:0.264583" />
    <path
       d="m 166.18887,74.419065 h -37.07674 a 1.453986,1.453986 0 1 1 0,-2.907972 h 37.07674 a 1.453986,1.453986 0 1 1 0,2.907972 z"
       fill="#cccccc"
       id="path6"
       style="stroke-width:0.264583" />
    <path
       d="m 160.19118,91.503407 h -31.07905 a 1.453986,1.453986 0 1 1 0,-2.907972 h 31.07905 a 1.453986,1.453986 0 1 1 0,2.907972 z"
       fill="#cccccc"
       id="path7"
       style="stroke-width:0.264583" />
    <path
       d="m 166.18887,96.41061 h -37.07674 a 1.453986,1.453986 0 0 1 0,-2.907972 h 37.07674 a 1.453986,1.453986 0 1 1 0,2.907972 z"
       fill="#cccccc"
       id="path8"
       style="stroke-width:0.264583" />
    <circle
       id="b6fa6563-5e20-492f-ac6f-1d924df782c1"
       data-name="Ellipse 44"
       cx="116.16991"
       cy="48.519939"
       r="5.1390414"
       fill="#60b74c"
       style="fill:#25c28e;fill-opacity:1;stroke-width:0.264583" />
    <path
       id="bcd12bac-9f30-4deb-ae50-48c1cb737c9b-461"
       data-name="Path 395"
       d="m 115.66074,50.480322 a 0.53299253,0.53299253 0 0 1 -0.32065,-0.106566 l -0.006,-0.0043 -1.20775,-0.923885 a 0.53671258,0.53671258 0 0 1 0.65309,-0.851887 l 0.78229,0.59989 1.84857,-2.411661 a 0.53648503,0.53648503 0 0 1 0.75219,-0.09935 l 1.6e-4,1.17e-4 -0.0115,0.01593 0.0118,-0.01593 a 0.53713326,0.53713326 0 0 1 0.0992,0.752329 l -2.17434,2.835376 a 0.53680518,0.53680518 0 0 1 -0.42694,0.209289 z"
       fill="#ffffff"
       style="stroke-width:0.264583" />
    <circle
       id="b95850ed-3210-4af9-b38f-3ce1288a2453"
       data-name="Ellipse 44"
       cx="116.69907"
       cy="70.511482"
       r="5.1390414"
       fill="#cccccc"
       style="stroke-width:0.264583" />
    <circle
       id="b1885188-7f5c-4441-a082-07b02d322a90"
       data-name="Ellipse 44"
       cx="116.16991"
       cy="92.503029"
       r="5.1390414"
       fill="#cccccc"
       style="stroke-width:0.264583" />
    <path
       d="m 181.93696,32.791535 h -10.56455 a 2.9079719,2.9079719 0 0 1 -2.90797,-2.907974 V 22.08073 a 0.18174758,0.18174758 0 0 1 0.2946,-0.142463 l 13.29077,10.529053 a 0.18174758,0.18174758 0 0 1 -0.11285,0.324215 z"
       fill="#e6e6e6"
       id="path9"
       style="stroke-width:0.264583" />
    <path
       d="m 110.42193,134.34823 -40.387611,8.51299 A 4.5029887,4.5029887 0 0 1 64.705415,139.3877 L 57.77497,106.50797 a 4.502986,4.502986 0 0 1 3.473508,-5.32894 l 40.387562,-8.512991 a 4.502986,4.502986 0 0 1 5.32894,3.473511 l 6.93049,32.87978 a 4.5029834,4.5029834 0 0 1 -3.47354,5.3289 z"
       fill="#ffffff"
       id="path10"
       style="stroke-width:0.264583" />
    <path
       d="m 110.42193,134.34823 -40.387611,8.51299 A 4.5029887,4.5029887 0 0 1 64.705415,139.3877 L 57.77497,106.50797 a 4.502986,4.502986 0 0 1 3.473508,-5.32894 l 40.387562,-8.512991 a 4.502986,4.502986 0 0 1 5.32894,3.473511 l 6.93049,32.87978 a 4.5029834,4.5029834 0 0 1 -3.47354,5.3289 z M 61.357621,101.69684 a 3.9732479,3.9732479 0 0 0 -3.064864,4.702 l 6.930445,32.87973 a 3.9732479,3.9732479 0 0 0 4.701977,3.06486 l 40.387611,-8.51298 a 3.9732479,3.9732479 0 0 0 3.06489,-4.70197 l -6.93049,-32.879766 a 3.9732479,3.9732479 0 0 0 -4.702,-3.064864 z"
       fill="#3f3d56"
       id="path11"
       style="stroke-width:0.264583" />
    <path
       id="b3d30341-bfe2-418c-85c9-1bd82b5f5e0c-462"
       data-name="Path 411"
       d="m 99.126646,103.50742 -20.383066,4.29641 a 0.72254532,0.72254532 0 0 1 -0.854422,-0.49294 0.69602349,0.69602349 0 0 1 0.528794,-0.86098 l 20.748714,-4.37349 c 0.810137,0.45656 0.554087,1.30577 -0.0403,1.43105 z"
       fill="#cccccc"
       style="stroke-width:0.264583" />
    <path
       id="ba7e3b3b-1e3b-4053-b678-ceb2b593f6ee-463"
       data-name="Path 412"
       d="m 99.880273,107.08275 -20.383075,4.29642 a 0.72255062,0.72255062 0 0 1 -0.854425,-0.49294 0.69602614,0.69602614 0 0 1 0.528794,-0.86099 l 20.748716,-4.37349 c 0.810157,0.45656 0.554087,1.30578 -0.0403,1.43106 z"
       fill="#cccccc"
       style="stroke-width:0.264583" />
    <path
       id="f6076b75-2d9c-4839-8b09-e00257d358cf-464"
       data-name="Path 413"
       d="m 75.519939,114.34366 -6.220717,1.31123 a 0.78369582,0.78369582 0 0 1 -0.927547,-0.6046 l -1.547344,-7.341 a 0.78369582,0.78369582 0 0 1 0.604599,-0.92755 l 6.220714,-1.31123 a 0.78396041,0.78396041 0 0 1 0.92755,0.6046 l 1.547339,7.34101 a 0.78369582,0.78369582 0 0 1 -0.604597,0.92755 z"
       fill="#cccccc"
       style="stroke-width:0.264583" />
    <path
       id="acc57b87-b2e4-43d3-aa96-a8e2462d330c-465"
       data-name="Path 414"
       d="m 101.36402,114.4158 -31.108308,6.55713 a 0.72254268,0.72254268 0 0 1 -0.854416,-0.49294 0.69601291,0.69601291 0 0 1 0.528791,-0.86099 l 31.474203,-6.63425 c 0.81014,0.45656 0.55409,1.30577 -0.0403,1.43105 z"
       fill="#cccccc"
       style="stroke-width:0.264583" />
    <path
       id="e5415755-f7b6-4857-8e09-1413b7f93e97-466"
       data-name="Path 415"
       d="m 102.11786,117.9922 -31.108311,6.55712 a 0.72254003,0.72254003 0 0 1 -0.854416,-0.49294 0.69601555,0.69601555 0 0 1 0.528791,-0.86099 l 31.474206,-6.63425 c 0.81016,0.45657 0.55409,1.30578 -0.0403,1.43106 z"
       fill="#cccccc"
       style="stroke-width:0.264583" />
    <path
       id="afce3f4d-2700-4434-8207-f3b7a686e1c3-467"
       data-name="Path 416"
       d="m 102.87121,121.56625 -31.108318,6.55712 a 0.72254268,0.72254268 0 0 1 -0.854416,-0.49293 0.6960182,0.6960182 0 0 1 0.528791,-0.86099 l 31.474213,-6.63425 c 0.81016,0.45656 0.55409,1.30577 -0.0403,1.43105 z"
       fill="#cccccc"
       style="stroke-width:0.264583" />
    <path
       id="abb1f551-863d-408b-9aec-d87e952e72e4-468"
       data-name="Path 417"
       d="m 103.62499,125.14238 -31.108316,6.5571 a 0.72254268,0.72254268 0 0 1 -0.854416,-0.49293 0.69601291,0.69601291 0 0 1 0.528791,-0.86099 l 31.474211,-6.63423 c 0.81015,0.45656 0.55409,1.30577 -0.0403,1.43105 z"
       fill="#cccccc"
       style="stroke-width:0.264583" />
    <path
       id="bbed1b24-9150-4534-8e9c-e5347be55157-469"
       data-name="Path 418"
       d="m 104.3784,128.7167 -31.108327,6.55709 a 0.72254532,0.72254532 0 0 1 -0.854417,-0.49294 0.6960182,0.6960182 0 0 1 0.528794,-0.86098 l 31.47422,-6.63421 c 0.81016,0.45656 0.55409,1.30577 -0.0403,1.43104 z"
       fill="#cccccc"
       style="stroke-width:0.264583" />
    <path
       d="m 109.86973,112.34766 a 2.7847845,2.7847845 0 0 0 -0.18078,0.39956 l -12.735338,3.16029 -2.215475,-2.29198 -3.89599,2.89146 3.527748,4.43866 a 2.1166666,2.1166666 0 0 0 2.457715,0.64241 l 13.81907,-5.64683 a 2.7773577,2.7773577 0 1 0 -0.77693,-3.59356 z"
       fill="#a0616a"
       id="path12"
       style="stroke-width:0.264583" />
    <path
       d="m 66.399529,140.47093 a 2.8423393,2.8423393 0 0 0 1.687579,-4.01841 l 8.764113,-24.35955 -6.086382,-1.07863 -6.701007,24.28382 a 2.8577407,2.8577407 0 0 0 2.335697,5.17277 z"
       fill="#a0616a"
       id="path13"
       style="stroke-width:0.264583" />
    <path
       d="m 75.738167,116.41707 -6.009357,-2.30635 a 1.2744688,1.2744688 0 0 1 -0.653452,-1.81584 l 3.15251,-5.58955 a 3.5394265,3.5394265 0 0 1 6.601355,2.55577 l -1.390523,6.24356 a 1.2744662,1.2744662 0 0 1 -1.700533,0.91242 z"
       fill="#60b74c"
       id="path14"
       style="fill:#25c28e;fill-opacity:1;stroke-width:0.264583" />
    <polygon
       points="137.617,574.477 119.523,574.478 119.525,621.766 131.785,621.765 "
       fill="#a0616a"
       id="polygon14"
       transform="matrix(0.26458333,0,0,0.26458333,57.677749,21.695843)" />
    <path
       d="m 88.474595,185.14589 6.388047,-2.6e-4 h 2.64e-4 a 4.0708923,4.0708923 0 0 1 4.071004,4.07094 v 0.13229 l -10.459117,2.6e-4 z"
       fill="#2f2e41"
       id="path15"
       style="stroke-width:0.264583" />
    <polygon
       points="68.617,574.477 50.523,574.478 50.525,621.766 62.785,621.765 "
       fill="#a0616a"
       id="polygon15"
       transform="matrix(0.26458333,0,0,0.26458333,57.677749,21.695843)" />
    <path
       d="m 70.218345,185.14589 6.388047,-2.6e-4 h 2.64e-4 a 4.0708923,4.0708923 0 0 1 4.071004,4.07094 v 0.13229 l -10.459117,2.6e-4 z"
       fill="#2f2e41"
       id="path16"
       style="stroke-width:0.264583" />
    <path
       d="M 74.446326,181.16911 H 70.341408 A 1.1907335,1.1907335 0 0 1 69.15214,179.9219 l 1.949815,-41.89201 0.122862,-0.003 19.822369,-0.51676 3.878903,41.91605 a 1.1906832,1.1906832 0 0 1 -1.090309,1.2994 l -4.6107,0.36871 a 1.1912177,1.1912177 0 0 1 -1.261293,-0.94774 l -5.897644,-29.83911 a 0.38463537,0.38463537 0 0 0 -0.388673,-0.3173 h -0.0016 a 0.38483381,0.38483381 0 0 0 -0.387962,0.3204 l -5.673362,29.89792 a 1.1931438,1.1931438 0 0 1 -1.168207,0.96065 z"
       fill="#2f2e41"
       id="path17"
       style="stroke-width:0.264583" />
    <circle
       cx="81.965721"
       cy="94.168968"
       r="6.4984388"
       fill="#a0616a"
       id="circle17"
       style="stroke-width:0.264583" />
    <path
       d="m 79.786697,142.93915 c -3.097292,0 -6.278624,-0.81416 -8.915929,-3.22125 a 1.2043383,1.2043383 0 0 1 -0.3888,-1.01854 c 0.282281,-2.53628 1.651579,-15.63187 0.880438,-24.37972 a 10.588514,10.588514 0 0 1 3.427833,-8.81192 10.477013,10.477013 0 0 1 8.985821,-2.60193 h 6.4e-5 c 0.08094,0.0145 0.161814,0.0297 0.242816,0.0452 5.202653,1.00692 8.817485,5.8219 8.408458,11.20016 -0.596863,7.84763 -1.131909,18.46251 -0.29178,24.4655 a 1.1886697,1.1886697 0 0 1 -0.638913,1.2268 c -1.911575,0.96584 -6.700882,3.09568 -11.710008,3.09568 z"
       fill="#60b74c"
       id="path18"
       style="fill:#25c28e;fill-opacity:1;stroke-width:0.264583" />
    <path
       d="m 88.266391,116.88466 a 1.273085,1.273085 0 0 1 -0.558136,-0.9026 l -0.791712,-6.34734 a 3.5394291,3.5394291 0 0 1 6.814116,-1.91773 l 2.607808,5.86349 a 1.2744635,1.2744635 0 0 1 -0.822833,1.74565 l -6.201112,1.72562 a 1.2730242,1.2730242 0 0 1 -1.048131,-0.16709 z"
       fill="#60b74c"
       id="path19"
       style="fill:#25c28e;fill-opacity:1;stroke-width:0.264583" />
    <path
       d="m 79.697141,100.57565 a 4.6560978,4.6560978 0 0 1 -1.798426,-0.32539 c -0.251722,-0.097 -0.513027,-0.17674 -0.764284,-0.273813 -2.218959,-0.857292 -3.680671,-3.220476 -3.733024,-5.59871 -0.05235,-2.378234 1.179248,-4.68653 3.008079,-6.207755 1.828832,-1.521224 4.197615,-2.302229 6.56957,-2.482834 2.554978,-0.19454 5.431965,0.45339 6.859656,2.581169 0.380029,0.566381 0.645806,1.253554 0.420624,1.937404 a 1.2397264,1.2397264 0 0 1 -0.349324,0.536575 c -0.637588,0.567266 -1.273233,0.140734 -1.923201,0.103052 -0.893373,-0.0518 -1.69578,0.671336 -1.984179,1.518463 -0.288398,0.847127 -0.161446,1.779746 0.07142,2.64379 a 6.604545,6.604545 0 0 1 0.332912,1.60758 1.6161596,1.6161596 0 0 1 -0.669645,1.423072 c -0.55825,0.337441 -1.291373,0.142144 -1.849951,-0.194752 -0.558577,-0.336897 -1.041225,-0.805321 -1.644589,-1.053232 -0.603364,-0.247912 -1.413983,-0.192921 -1.765168,0.356785 a 1.9523604,1.9523604 0 0 0 -0.22316,0.644319 c -0.314833,1.434372 -0.242472,1.349904 -0.557305,2.784267 z"
       fill="#2f2e41"
       id="path20"
       style="stroke-width:0.264583" />
    <path
       d="M 108.38991,189.70642 H 58.119031 a 0.26458333,0.26458333 0 0 1 0,-0.52916 h 50.270879 a 0.26458333,0.26458333 0 1 1 0,0.52916 z"
       fill="#cccccc"
       id="path21"
       style="stroke-width:0.264583" />
    <path
       d="m 237.0687,135.10421 -35.99855,20.1923 a 4.502986,4.502986 0 0 1 -6.12336,-1.72247 L 178.50818,124.2675 a 4.5029887,4.5029887 0 0 1 1.72247,-6.1234 l 35.99856,-20.192409 a 4.502986,4.502986 0 0 1 6.12336,1.722475 l 16.43862,29.306674 a 4.5029913,4.5029913 0 0 1 -1.72249,6.12337 z"
       fill="#ffffff"
       id="path22"
       style="stroke-width:0.264583" />
    <path
       d="m 237.0687,135.10421 -35.99855,20.1923 a 4.502986,4.502986 0 0 1 -6.12336,-1.72247 L 178.50818,124.2675 a 4.5029887,4.5029887 0 0 1 1.72247,-6.1234 l 35.99856,-20.192409 a 4.502986,4.502986 0 0 1 6.12336,1.722475 l 16.43862,29.306674 a 4.5029913,4.5029913 0 0 1 -1.72249,6.12337 z m -56.57917,-16.49859 a 3.9732479,3.9732479 0 0 0 -1.51983,5.403 l 16.43861,29.30654 a 3.9732479,3.9732479 0 0 0 5.40297,1.51983 l 35.99856,-20.1923 a 3.9732479,3.9732479 0 0 0 1.51983,-5.40297 L 221.89106,99.933042 a 3.9732479,3.9732479 0 0 0 -5.40297,-1.519833 z"
       fill="#3f3d56"
       id="path23"
       style="stroke-width:0.264583" />
    <path
       id="b4188fdd-8694-46fd-b6a9-2365408da1f7-470"
       data-name="Path 411"
       d="m 217.074,109.04759 -18.168,10.19086 a 0.72254532,0.72254532 0 0 1 -0.96269,-0.21511 0.69602349,0.69602349 0 0 1 0.24737,-0.97966 l 18.49391,-10.37367 c 0.90955,0.19363 0.91895,1.08055 0.38918,1.3777 z"
       fill="#cccccc"
       style="stroke-width:0.264583" />
    <path
       id="e79bc6ad-6d6d-496e-bd80-f918a84d8140-471"
       data-name="Path 412"
       d="m 218.86153,112.2344 -18.16801,10.19086 a 0.72254532,0.72254532 0 0 1 -0.96268,-0.21511 0.69602085,0.69602085 0 0 1 0.24736,-0.97966 l 18.49391,-10.37366 c 0.90956,0.19362 0.91895,1.08054 0.38919,1.37769 z"
       fill="#cccccc"
       style="stroke-width:0.264583" />
    <path
       id="b0898467-4323-4072-9ee9-29d386bbe07d-472"
       data-name="Path 413"
       d="m 197.7838,126.44276 -5.5447,3.11014 a 0.78369582,0.78369582 0 0 1 -1.06583,-0.29982 l -3.67021,-6.54322 a 0.78369582,0.78369582 0 0 1 0.29982,-1.06584 l 5.54469,-3.11015 a 0.78396041,0.78396041 0 0 1 1.06584,0.29982 l 3.67021,6.54325 a 0.78369582,0.78369582 0 0 1 -0.29982,1.06584 z"
       fill="#cccccc"
       style="stroke-width:0.264583" />
    <path
       id="aea6c33f-bf9b-47d5-9d2e-017fc614339c-473"
       data-name="Path 414"
       d="m 222.46867,118.78904 -27.7277,15.55309 a 0.72254532,0.72254532 0 0 1 -0.96268,-0.21511 0.6960182,0.6960182 0 0 1 0.24737,-0.97966 l 28.05383,-15.73601 c 0.90955,0.19362 0.91895,1.08054 0.38918,1.37769 z"
       fill="#cccccc"
       style="stroke-width:0.264583" />
    <path
       id="b16b06d0-f954-457b-b4c1-332719c9f6d6-474"
       data-name="Path 415"
       d="m 224.25673,121.9768 -27.7277,15.55305 a 0.72254532,0.72254532 0 0 1 -0.96268,-0.21511 0.6960182,0.6960182 0 0 1 0.24736,-0.97965 l 28.05383,-15.736 c 0.90956,0.19363 0.91895,1.08055 0.38919,1.37769 z"
       fill="#cccccc"
       style="stroke-width:0.264583" />
    <path
       id="b3c0d144-cc2c-4ac0-a007-a1ff15c76ba0-475"
       data-name="Path 416"
       d="m 226.04362,125.16245 -27.72771,15.55304 a 0.72254003,0.72254003 0 0 1 -0.96267,-0.21511 0.69601555,0.69601555 0 0 1 0.24736,-0.97966 l 28.05383,-15.73597 c 0.90955,0.19362 0.91895,1.08054 0.38919,1.37769 z"
       fill="#cccccc"
       style="stroke-width:0.264583" />
    <path
       id="b05e8afe-5132-428a-bb53-4b9505cb52a3-476"
       data-name="Path 417"
       d="m 227.83154,128.34995 -27.7277,15.55302 a 0.72254268,0.72254268 0 0 1 -0.96268,-0.21511 0.6960182,0.6960182 0 0 1 0.24736,-0.97965 l 28.05385,-15.73596 c 0.90955,0.19362 0.91894,1.08055 0.38918,1.37769 z"
       fill="#cccccc"
       style="stroke-width:0.264583" />
    <path
       id="a26c59cb-bc72-4a1e-9571-41d1cd64f8ea-477"
       data-name="Path 418"
       d="m 229.61856,131.53583 -27.7277,15.55302 a 0.72254532,0.72254532 0 0 1 -0.96267,-0.21511 0.69601555,0.69601555 0 0 1 0.24736,-0.97965 l 28.05383,-15.73596 c 0.90955,0.19363 0.91895,1.08054 0.38918,1.37769 z"
       fill="#cccccc"
       style="stroke-width:0.264583" />
    <path
       d="m 224.78119,143.47466 a 2.5013047,2.5013047 0 0 0 -1.66162,-3.45685 l -0.75406,-8.85676 -3.62649,2.86087 1.27205,7.97193 a 2.5148646,2.5148646 0 0 0 4.77012,1.48081 z"
       fill="#ffb8b8"
       id="path24"
       style="stroke-width:0.264583" />
    <path
       d="m 222.43404,139.09022 -3.0118,0.3592 a 1.1194812,1.1194812 0 0 1 -1.2508,-1.06312 l -0.43923,-10.16061 -5.709,-15.59618 a 3.214235,3.214235 0 0 1 0.16967,-3.06058 4.2009721,4.2009721 0 0 1 0.47837,-0.6173 3.2039533,3.2039533 0 0 1 2.79457,-0.99229 3.3407376,3.3407376 0 0 1 2.5091,1.7435 l 3.72317,7.80177 a 22.162823,22.162823 0 0 1 2.14159,10.47041 l -0.41985,10.05094 a 1.1186583,1.1186583 0 0 1 -0.97098,1.0623 z"
       fill="#60b74c"
       id="path25"
       style="fill:#25c28e;fill-opacity:1;stroke-width:0.264583" />
    <polygon
       points="629.682,575.793 645.258,568.956 663.126,609.664 652.572,614.296 "
       fill="#ffb8b8"
       id="polygon25"
       transform="matrix(0.26458333,0,0,0.26458333,57.677749,21.695843)" />
    <path
       d="m 235.03045,185.39711 -9.00375,3.95214 -0.05,-0.11388 a 3.827182,3.827182 0 0 1 1.96608,-5.04285 l 2.2e-4,-9e-5 5.49917,-2.41381 z"
       fill="#2f2e41"
       id="path26"
       style="stroke-width:0.264583" />
    <polygon
       points="504.428,578.02 521.439,578.021 521.437,622.477 509.911,622.477 "
       fill="#ffb8b8"
       id="polygon26"
       transform="matrix(0.26458333,0,0,0.26458333,57.677749,21.695843)" />
    <path
       d="m 196.41914,189.34925 -9.83295,-2.7e-4 v -0.12437 a 3.8271741,3.8271741 0 0 1 3.82728,-3.82722 h 2.4e-4 l 6.00561,2.4e-4 z"
       fill="#2f2e41"
       id="path27"
       style="stroke-width:0.264583" />
    <path
       d="m 225.33183,182.37194 -16.98797,-37.91028 a 0.37317627,0.37317627 0 0 0 -0.70275,0.0498 l -10.35066,36.61676 a 1.1128587,1.1128587 0 0 1 -1.19155,0.82032 l -5.65296,-0.56526 a 1.1258021,1.1258021 0 0 1 -1.00493,-1.20436 c 1.79805,-22.36358 4.63248,-43.47032 13.12376,-57.28751 l 0.0452,-0.0736 12.84381,2.51854 17.14719,54.60306 a 1.1241114,1.1241114 0 0 1 -0.72795,1.39286 l -5.17078,1.66201 a 1.1152664,1.1152664 0 0 1 -1.37039,-0.62234 z"
       fill="#2f2e41"
       id="path28"
       style="stroke-width:0.264583" />
    <circle
       cx="208.81697"
       cy="97.362274"
       r="6.1093907"
       fill="#ffb8b8"
       id="circle28"
       style="stroke-width:0.264583" />
    <path
       d="m 201.77536,123.94906 -0.0779,-0.016 -0.0183,-0.0773 c -0.82317,-3.47538 -0.84279,-7.26825 -0.0584,-11.2727 a 8.8550484,8.8550484 0 0 1 8.86555,-7.16356 v 0 a 8.8695688,8.8695688 0 0 1 8.68318,8.52777 c 0.26193,6.8876 -2.55283,12.85893 -2.58126,12.91845 l -0.0419,0.0875 z"
       fill="#60b74c"
       id="path29"
       style="fill:#25c28e;fill-opacity:1;stroke-width:0.264583" />
    <path
       d="m 185.39776,135.5719 a 2.5012994,2.5012994 0 0 0 2.00598,-3.26906 l 7.03686,-5.43078 -4.36907,-1.49909 -6.0125,5.387 a 2.5148646,2.5148646 0 0 0 1.33873,4.81192 z"
       fill="#ffb8b8"
       id="path30"
       style="stroke-width:0.264583" />
    <path
       d="m 189.24125,131.4762 a 1.1151499,1.1151499 0 0 1 -1.42912,-0.25206 l -1.9331,-2.33726 a 1.119243,1.119243 0 0 1 0.2163,-1.62725 l 8.30338,-5.87218 10.01859,-13.2464 a 3.213981,3.213981 0 0 1 2.66488,-1.51489 4.1925478,4.1925478 0 0 1 0.7777,0.0678 v 0 a 3.2029453,3.2029453 0 0 1 2.34777,1.81191 3.3404677,3.3404677 0 0 1 -0.10672,3.05333 l -7.41834,12.01394 -0.0163,0.0263 z"
       fill="#60b74c"
       id="path31"
       style="fill:#25c28e;fill-opacity:1;stroke-width:0.264583" />
    <path
       d="m 209.91038,96.983179 c -0.45028,-0.740698 -1.44395,-0.949957 -2.30665,-0.865452 -0.8627,0.0845 -1.70166,0.387728 -2.56846,0.381 -2.40687,-0.01865 -4.26474,-2.952136 -3.25281,-5.136031 0.82989,-1.791025 2.90255,-2.577473 4.77751,-3.194722 3.93118,-1.294167 8.44691,-2.537637 12.01423,-0.439245 a 7.4648826,7.4648826 0 0 1 3.59304,6.651646 c -0.0802,1.651452 -0.7127,3.347796 -0.1778,4.91228 0.61709,1.804865 2.57367,2.773235 4.42269,3.241665 3.24129,0.82115 6.65877,0.68888 9.92032,1.42539 3.26154,0.7365 6.60376,2.69211 7.48294,5.91815 0.57748,2.119 -0.0251,4.40014 -1.02301,6.35661 a 16.46319,16.46319 0 0 1 -22.96717,6.73666 c -3.943,-2.3024 -6.78969,-6.19367 -8.48686,-10.43253 a 34.932818,34.932818 0 0 1 -2.01917,-7.67285 c -0.3801,-2.4582 -0.0576,-4.942381 0.63088,-7.332606 a 0.67381172,0.67381172 0 0 0 -0.0397,-0.549965 z"
       fill="#2f2e41"
       id="path32"
       style="stroke-width:0.264583" />
    <path
       d="m 231.95053,189.70642 h -50.27084 a 0.26458333,0.26458333 0 0 1 0,-0.52916 h 50.27084 a 0.26458333,0.26458333 0 1 1 0,0.52916 z"
       fill="#cccccc"
       id="path33"
       style="stroke-width:0.264583" />
  </g>
</svg>
