<?xml version="1.0" encoding="UTF-8" standalone="no"?>
<!-- Created with Inkscape (http://www.inkscape.org/) -->

<svg
   width="66.961021mm"
   height="11.452036mm"
   viewBox="0 0 66.96102 11.452036"
   version="1.1"
   id="svg1"
   inkscape:version="1.3 (0e150ed6c4, 2023-07-21)"
   sodipodi:docname="taskman-light.svg"
   xmlns:inkscape="http://www.inkscape.org/namespaces/inkscape"
   xmlns:sodipodi="http://sodipodi.sourceforge.net/DTD/sodipodi-0.dtd"
   xmlns="http://www.w3.org/2000/svg"
   xmlns:svg="http://www.w3.org/2000/svg">
  <sodipodi:namedview
     id="namedview1"
     pagecolor="#888888"
     bordercolor="#000000"
     borderopacity="0"
     inkscape:showpageshadow="2"
     inkscape:pageopacity="0.0"
     inkscape:pagecheckerboard="0"
     inkscape:deskcolor="#b3b3b3"
     inkscape:document-units="mm"
     inkscape:zoom="0.71090067"
     inkscape:cx="372.06323"
     inkscape:cy="343.22657"
     inkscape:window-width="1888"
     inkscape:window-height="979"
     inkscape:window-x="26"
     inkscape:window-y="23"
     inkscape:window-maximized="0"
     inkscape:current-layer="layer1" />
  <defs
     id="defs1" />
  <g
     inkscape:label="Layer 1"
     inkscape:groupmode="layer"
     id="layer1"
     transform="translate(-6.0854313,-57.679166)">
    <path
       id="path1"
       style="fill:#25c28e;fill-opacity:1;stroke-width:0.0421697"
       d="m 13.791495,57.679166 a 4.012061,1.9436339 0 0 0 -4.012056,1.94363 4.012061,1.9436339 0 0 0 4.012056,1.94362 4.012061,1.9436339 0 0 0 4.012173,-1.94362 4.012061,1.9436339 0 0 0 -4.012173,-1.94363 z m -5.9851852,4.221925 c -0.9525732,-4.53e-4 -1.7200549,0.352864 -1.7208778,0.792125 -8.3e-4,0.439263 0.7653672,0.793244 1.7179406,0.793662 l 4.2311734,0.002 v 1.383673 0.711701 l -0.03995,-0.0189 -4.439601,2.196858 c -0.666446,0.329738 -0.6812731,0.842555 -0.033367,1.149855 0.6479072,0.307296 1.705948,0.289231 2.3723609,-0.04053 l 3.7776611,-1.869237 3.786006,1.869525 c 0.66708,0.329435 1.725343,0.34695 2.372595,0.03933 0.647311,-0.307594 0.631275,-0.820437 -0.03584,-1.149856 l -4.44653,-2.19572 -0.03995,0.01901 V 64.05657 63.490694 l 4.228118,0.002 c 0.952571,4.04e-4 1.720163,-0.35292 1.720986,-0.792183 8.86e-4,-0.439261 -0.76548,-0.793187 -1.718048,-0.793604 l -5.386573,-0.0024 v -4.47e-4 z" />
    <text
       xml:space="preserve"
       style="font-style:normal;font-variant:normal;font-weight:normal;font-stretch:normal;font-size:10.4562px;font-family:Poppins;-inkscape-font-specification:'Poppins, Normal';font-variant-ligatures:normal;font-variant-caps:normal;font-variant-numeric:normal;font-variant-east-asian:normal;fill:#ffffff;stroke-width:0.871338"
       x="18.289305"
       y="79.007584"
       id="text1"
       transform="scale(1.1452116,0.8732011)"><tspan
         sodipodi:role="line"
         id="tspan1"
         style="font-style:normal;font-variant:normal;font-weight:normal;font-stretch:normal;font-size:9.4562px;font-family:Poppins;-inkscape-font-specification:'Poppins, Normal';font-variant-ligatures:normal;font-variant-caps:normal;font-variant-numeric:normal;font-variant-east-asian:normal;fill:#ffffff;stroke-width:0.871338"
         x="18.289305"
         y="79.007584">Taskman</tspan></text>
  </g>
</svg>
